<?xml version="1.0" encoding="utf-8"?>
<!-- Generator: Adobe Illustrator 23.0.4, SVG Export Plug-In . SVG Version: 6.00 Build 0)  -->
<svg version="1.1" id="Layer_1" xmlns="http://www.w3.org/2000/svg" xmlns:xlink="http://www.w3.org/1999/xlink" x="0px" y="0px"
	 viewBox="0 0 511 511" style="enable-background:new 0 0 511 511;" xml:space="preserve">
<style type="text/css">
	.st0{fill:#D5D5D5;}
</style>
<path class="st0" d="M384.8,425.9c-37.9,26.7-82.5,40.9-129,40.9c-24.2,0-48-3.8-70.8-11.4c-2.7-0.9-5.7-0.6-8.1,0.8l-57.3,33.1
	c-2.6,1.5-4.9,0.6-6,0c-0.9-0.5-3.1-2.1-3-5.3c0,0,0-0.1,0-0.1v-66c0-2.8-1.2-5.6-3.4-7.5c-47.8-42.5-75.3-103.5-75.3-167.4
	c0-46.5,14.1-91.1,40.9-129c3.2-4.5,2.1-10.7-2.4-13.9c-4.5-3.2-10.7-2.1-13.9,2.4C27.4,143.6,12,192.2,12,242.8
	c0,68.1,28.6,133.2,78.6,179.3v61.6c-0.1,9.3,4.8,18,12.9,22.7c4.1,2.4,8.6,3.6,13.1,3.6c4.4,0,8.9-1.2,13-3.5l53.5-30.9
	c23.5,7.3,47.9,11.1,72.8,11.1c50.7,0,99.2-15.4,140.5-44.5c4.5-3.2,5.6-9.4,2.4-13.9C395.5,423.8,389.3,422.7,384.8,425.9z"/>
<path class="st0" d="M428.2,70.4C382.2,24.4,320.9-1,255.8-1c-50.6,0-99.2,15.4-140.5,44.5c-4.5,3.2-5.6,9.4-2.4,13.9
	s9.4,5.6,13.9,2.4c37.9-26.7,82.5-40.9,129-40.9c123.4,0,223.9,100.4,223.9,223.9c0,46.5-14.1,91.1-40.9,129
	c-3.2,4.5-2.1,10.7,2.4,13.9c1.8,1.2,3.8,1.8,5.7,1.8c3.1,0,6.2-1.5,8.2-4.2c29.1-41.3,44.5-89.8,44.5-140.5
	C499.7,177.7,474.3,116.5,428.2,70.4z"/>
<path class="st0" d="M403.7,161.4c-8.8-7.8-21.8-7.6-31,0.4l-70.8,53.6c0,0-0.1,0.1-0.1,0.1c-0.9,0.7-1.9,1.5-4.6-0.3l-55.4-40.8
	c-11.4-8.4-25.2-11.9-37.9-9.6c-11.4,2.1-20.8,8.4-27.3,18.4l-70.7,108.2c-9.2,13.4-5.6,26.2,2.1,33c4.3,3.8,9.6,5.7,15,5.7
	c5.6,0,11.3-2,16-6.1l70.8-53.6c0,0,0.1-0.1,0.1-0.1c0.9-0.7,1.9-1.5,4.6,0.3l55.4,40.8c11.4,8.4,25.2,11.9,37.9,9.6
	c11.4-2.1,20.8-8.4,27.3-18.4l70.7-108.2C414.9,180.9,411.3,168.1,403.7,161.4z M389.2,183.1c0,0.1-0.1,0.1-0.1,0.2l-70.7,108.3
	c-3.5,5.3-8.2,8.6-14.2,9.6c-7.3,1.3-15.7-0.9-22.5-6l-55.5-40.9c-0.1-0.1-0.2-0.1-0.3-0.2c-9.2-6.3-19.8-6.2-28.2,0.3l-71,53.7
	c-0.2,0.2-0.4,0.3-0.6,0.5c-2.1,1.8-3.9,1.5-4.9,0.6c-1.6-1.4-0.4-4.4,1.3-6.8c0-0.1,0.1-0.1,0.1-0.2l70.7-108.3
	c3.5-5.3,8.2-8.6,14.2-9.6c7.3-1.3,15.7,0.9,22.5,6l55.5,40.9c0.1,0.1,0.2,0.1,0.3,0.2c9.2,6.3,19.8,6.2,28.2-0.3l71-53.7
	c0.2-0.2,0.4-0.3,0.6-0.5c2.1-1.8,3.9-1.5,4.8-0.6C392,177.7,390.8,180.8,389.2,183.1z"/>
<path class="st0" d="M90.4,87.5c2.6,0,5.1-1,7.1-2.9c3.9-3.9,3.9-10.2,0-14.1c-3.9-3.9-10.2-3.9-14.1,0l0,0
	c-3.9,3.9-3.9,10.2,0,14.1C85.3,86.5,87.9,87.5,90.4,87.5z"/>
<path class="st0" d="M413.8,401.5L413.8,401.5c-3.7,4.1-3.4,10.4,0.7,14.1c1.9,1.7,4.3,2.6,6.7,2.6c2.7,0,5.4-1.1,7.4-3.3
	c3.7-4.1,3.4-10.4-0.7-14.1C423.8,397.1,417.5,397.4,413.8,401.5z"/>
</svg>
